<?xml version="1.0" encoding="UTF-8" standalone="no"?>
<!-- Created with Inkscape (http://www.inkscape.org/) -->
<svg
   xmlns:dc="http://purl.org/dc/elements/1.1/"
   xmlns:cc="http://creativecommons.org/ns#"
   xmlns:rdf="http://www.w3.org/1999/02/22-rdf-syntax-ns#"
   xmlns:svg="http://www.w3.org/2000/svg"
   xmlns="http://www.w3.org/2000/svg"
   xmlns:sodipodi="http://sodipodi.sourceforge.net/DTD/sodipodi-0.dtd"
   xmlns:inkscape="http://www.inkscape.org/namespaces/inkscape"
   width="800"
   height="800"
   id="svg2"
   sodipodi:version="0.32"
   inkscape:version="0.46"
   sodipodi:docname="default.svg"
   inkscape:output_extension="org.inkscape.output.svg.inkscape"
   version="1.0">
  <defs
     id="defs4">
    <inkscape:perspective
       sodipodi:type="inkscape:persp3d"
       inkscape:vp_x="0 : 526.18109 : 1"
       inkscape:vp_y="0 : 1000 : 0"
       inkscape:vp_z="744.09448 : 526.18109 : 1"
       inkscape:persp3d-origin="372.04724 : 350.78739 : 1"
       id="perspective10" />
  </defs>
  <sodipodi:namedview
     id="base"
     pagecolor="#ffffff"
     bordercolor="#666666"
     borderopacity="1.0"
     gridtolerance="10000"
     guidetolerance="10"
     objecttolerance="10"
     inkscape:pageopacity="0.0"
     inkscape:pageshadow="2"
     inkscape:zoom="5.0809055"
     inkscape:cx="183.63817"
     inkscape:cy="753.78822"
     inkscape:document-units="px"
     inkscape:current-layer="layer1"
     showgrid="false"
     inkscape:window-width="681"
     inkscape:window-height="672"
     inkscape:window-x="225"
     inkscape:window-y="95" />
  <metadata
     id="metadata7">
    <rdf:RDF>
      <cc:Work
         rdf:about="">
        <dc:format>image/svg+xml</dc:format>
        <dc:type
           rdf:resource="http://purl.org/dc/dcmitype/StillImage" />
      </cc:Work>
    </rdf:RDF>
  </metadata>
  <g
     inkscape:label="Layer 1"
     inkscape:groupmode="layer"
     id="layer1"
     transform="translate(-250.92856,-426.1479)">
    <g
       id="Particle"
       transform="matrix(5.7948835e-2,0,0,6.131656e-2,264.67328,438.39575)">
      <path
         d="M 491.42856,542.36218 A 120,115.71429 0 1 1 251.42856,542.36218 A 120,115.71429 0 1 1 491.42856,542.36218 z"
         sodipodi:ry="115.71429"
         sodipodi:rx="120"
         sodipodi:cy="542.36218"
         sodipodi:cx="371.42856"
         id="path2393"
         style="fill:#ff0000;fill-rule:evenodd;stroke:#000000;stroke-width:1px;stroke-linecap:butt;stroke-linejoin:miter;stroke-opacity:1"
         sodipodi:type="arc" />
      <path
         id="path2395"
         d="M 408.57143,492.36218 C 412.83224,492.64898 445.71429,512.75265 445.71429,540.93361 C 445.71429,566.94477 432.13079,577.37425 454.28571,555.21933 C 475.16373,534.34131 464.44924,515.92158 445.71429,500.93361 C 419.29705,479.79983 425.11943,489.60418 391.42857,495.21933"
         style="fill:#ffaaaa;fill-rule:evenodd;stroke:#000000;stroke-width:1px;stroke-linecap:butt;stroke-linejoin:miter;stroke-opacity:1" />
    </g>
    <path
       style="fill:none;fill-opacity:1;fill-rule:evenodd;stroke:#00ec00;stroke-width:1.03239918;stroke-linecap:butt;stroke-linejoin:miter;stroke-miterlimit:4;stroke-dasharray:none;stroke-opacity:1"
       d="M 323.7743,474.1982 C 323.61132,477.91992 328.47853,467.99363 331.54542,468.19142 C 338.61628,468.64743 333.90559,479.03441 339.06076,468.0253 C 341.57187,462.66272 347.95,471.40637 349.02264,473.22332 C 351.91001,478.11426 346.59644,473.21009 353.02188,467.62408 C 355.43709,465.5244 358.52277,471.01669 360.25302,473.94758 C 361.52201,476.09715 362.21742,468.54975 364.28068,467.69938 C 367.03226,466.56531 370.53963,471.73038 370.38541,475.25183"
       id="Spring" />
    <g
       id="Pin"
       transform="matrix(1.015705,0,0,0.9453629,-257.14537,-299.25874)">
      <g
         transform="matrix(0.1212065,0,0,0.1109752,493.84056,722.17988)"
         id="pinpart"
         pinpart="">
        <path
           sodipodi:type="arc"
           style="fill:#20ffff;fill-opacity:1;stroke:#6fecff;stroke-width:5;stroke-miterlimit:4;stroke-dasharray:none;stroke-opacity:1"
           id="path2394"
           sodipodi:cx="251.42857"
           sodipodi:cy="385.71429"
           sodipodi:rx="37.142857"
           sodipodi:ry="20"
           d="M 288.57143,385.71429 A 37.142857,20 0 1 1 214.28572,385.71429 A 37.142857,20 0 1 1 288.57143,385.71429 z"
           transform="matrix(0.769584,-0.6385456,0.6385456,0.769584,62.565566,675.57125)" />
        <path
           transform="translate(250.92856,426.1479)"
           id="path2398"
           d="M 262.85714,400 L 297.14286,434.28571"
           style="fill:#00ffff;fill-opacity:1;fill-rule:evenodd;stroke:#23b99c;stroke-width:10;stroke-linecap:butt;stroke-linejoin:miter;stroke-miterlimit:4;stroke-dasharray:none;stroke-opacity:1" />
      </g>
      <rect
         y="821.71118"
         x="565.21539"
         height="6.3466239"
         width="5.7357965"
         id="rect2416"
         style="fill:none;fill-opacity:1;stroke:none;stroke-width:8.23843288;stroke-miterlimit:4;stroke-dasharray:none;stroke-opacity:1" />
    </g>
    <g
       id="Anchor"
       transform="matrix(0.7992117,0,0,0.7250234,76.183408,126.80904)">
      <path
         transform="translate(250.92856,426.1479)"
         id="path3217"
         d="M 128.99302,40.567436 L 128.99302,48.619631 L 136.09789,52.4089 L 143.67643,49.09329 L 143.67643,40.567436 L 136.72944,35.515078 L 128.99302,40.567436 z"
         style="fill:#000080;fill-rule:evenodd;stroke:#000054;stroke-width:1px;stroke-linecap:butt;stroke-linejoin:miter;stroke-opacity:1" />
      <path
         transform="matrix(0.7350589,0,0,0.8022186,287.31877,434.66447)"
         d="M 136.56825,44.666378 A 0.71460134,0.55580103 0 1 1 135.13905,44.666378 A 0.71460134,0.55580103 0 1 1 136.56825,44.666378 z"
         sodipodi:ry="0.55580103"
         sodipodi:rx="0.71460134"
         sodipodi:cy="44.666378"
         sodipodi:cx="135.85365"
         id="path3221"
         style="fill:#004353;fill-opacity:1;stroke:#004d54;stroke-width:10;stroke-miterlimit:4;stroke-dasharray:none;stroke-opacity:1"
         sodipodi:type="arc" />
      <path
         transform="translate(250.92856,426.1479)"
         id="path3223"
         d="M 133.86865,42.840176 C 138.63266,46.016182 138.79146,46.016182 138.79146,46.016182"
         style="fill:none;fill-rule:evenodd;stroke:#000000;stroke-width:1px;stroke-linecap:butt;stroke-linejoin:miter;stroke-opacity:1" />
      <path
         transform="translate(250.92856,426.1479)"
         id="path3225"
         d="M 137.99746,42.204975 C 134.50385,46.810184 134.50385,46.810184 134.50385,46.810184"
         style="fill:none;fill-rule:evenodd;stroke:#000000;stroke-width:1px;stroke-linecap:butt;stroke-linejoin:miter;stroke-opacity:1" />
    </g>
    <g
       id="LinearMotor">
      <path
         transform="matrix(0.8265071,0,0,0.7070294,273.70562,439.20801)"
         d="M 160.79811,40.883347 A 2.853822,2.3617837 0 1 1 155.09047,40.883347 A 2.853822,2.3617837 0 1 1 160.79811,40.883347 z"
         sodipodi:ry="2.3617837"
         sodipodi:rx="2.853822"
         sodipodi:cy="40.883347"
         sodipodi:cx="157.94429"
         id="path2403"
         style="fill:#004353;fill-opacity:1;stroke:#004d54;stroke-width:10;stroke-miterlimit:4;stroke-dasharray:none;stroke-opacity:1"
         sodipodi:type="arc" />
      <path
         transform="translate(250.92856,426.1479)"
         id="path2405"
         d="M 151.35097,39.308824 L 151.7446,44.426023 L 155.4841,44.426023"
         style="fill:none;fill-opacity:1;fill-rule:evenodd;stroke:#ffffff;stroke-width:1px;stroke-linecap:butt;stroke-linejoin:miter;stroke-opacity:1" />
    </g>
    <g
       id="CircularMotor">
      <path
         transform="matrix(0.8265071,0,0,0.7070294,290.43491,438.32233)"
         d="M 160.79811,40.883347 A 2.853822,2.3617837 0 1 1 155.09047,40.883347 A 2.853822,2.3617837 0 1 1 160.79811,40.883347 z"
         sodipodi:ry="2.3617837"
         sodipodi:rx="2.853822"
         sodipodi:cy="40.883347"
         sodipodi:cx="157.94429"
         id="path2408"
         style="fill:#004353;fill-opacity:1;stroke:#004d54;stroke-width:10;stroke-miterlimit:4;stroke-dasharray:none;stroke-opacity:1"
         sodipodi:type="arc" />
      <path
         id="path2416"
         d="M 422.74832,465.45672 C 421.95875,464.44385 420.53594,463.92961 419.20565,465.2599 C 418.79266,465.6729 418.81202,467.69873 418.81202,468.40895 C 418.81202,470.58537 422.07114,469.98347 422.74832,469.98347 C 422.89502,469.98347 422.87953,469.72105 422.94514,469.58984"
         style="fill:none;fill-opacity:1;fill-rule:evenodd;stroke:#fffdff;stroke-width:1px;stroke-linecap:butt;stroke-linejoin:miter;stroke-opacity:1" />
    </g>
    <path
       style="fill:none;fill-rule:evenodd;stroke:#4e41b2;stroke-width:1.8249259;stroke-linecap:butt;stroke-linejoin:miter;stroke-miterlimit:4;stroke-dasharray:none;stroke-opacity:1"
       d="M 434.74964,468.99939 L 453.45594,468.99939"
       id="Stick" />
  </g>
</svg>
